<svg xmlns="http://www.w3.org/2000/svg" width="24" height="24" viewBox="0 0 24 24"><g><path d="M22.095 11.345c-.248-1.475-1.337-2.654-2.75-3.067.02-.145.04-.29.04-.435a2.756 2.756 0 0 0-4.72-1.93.958.958 0 0 0-.897-.627.968.968 0 0 0-.965.965c0 .53.365.765 1.13 1.13.104.049.207.104.304.159.062.034.117.069.18.103.04.028.089.055.13.083.028.014.048.035.076.048.234.159.448.331.655.517.013.007.02.021.034.028.083.076.166.158.241.248.021.02.042.048.062.069a5.08 5.08 0 0 1 1.282 3.378c0 1.15-.392 2.22-1.033 3.074-.076.103-.166.2-.249.303-.02.02-.04.048-.062.07a8.158 8.158 0 0 1-.24.247c-.015.007-.022.021-.035.028a5.28 5.28 0 0 1-.655.517c-.028.013-.048.034-.076.048a4.1 4.1 0 0 1-.31.186c-.104.055-.2.11-.303.159-.772.358-1.13.592-1.13 1.13 0 .53.433.965.964.965a.958.958 0 0 0 .896-.627 2.756 2.756 0 0 0 4.722-1.93c0-.152-.02-.29-.041-.435a3.906 3.906 0 0 0 2.75-3.067 4.042 4.042 0 0 0 0-1.337zm-12.028 5.273a4.199 4.199 0 0 1-.304-.158c-.062-.035-.117-.07-.179-.104-.041-.027-.09-.055-.131-.083-.028-.013-.048-.034-.076-.048a5.259 5.259 0 0 1-.655-.517c-.013-.007-.02-.02-.034-.027-.083-.083-.166-.159-.241-.248-.021-.021-.042-.049-.062-.07a5.08 5.08 0 0 1-1.282-3.378c0-1.15.392-2.219 1.033-3.073.076-.104.166-.2.249-.304.02-.02.041-.048.062-.068.075-.083.158-.166.24-.249.015-.007.022-.02.035-.027.207-.186.42-.366.655-.517.028-.014.048-.035.076-.048.041-.028.083-.056.131-.083.055-.035.117-.07.18-.104.103-.055.2-.11.303-.158.772-.359 1.13-.593 1.13-1.13a.968.968 0 0 0-.965-.966.958.958 0 0 0-.896.628 2.756 2.756 0 0 0-4.722 1.93c0 .151.02.29.041.434a3.906 3.906 0 0 0-2.75 3.067 4.042 4.042 0 0 0-.055.648c0 .22.02.435.055.648.248 1.475 1.337 2.654 2.75 3.068-.02.144-.04.29-.04.434a2.756 2.756 0 0 0 4.72 1.93.958.958 0 0 0 .897.627c.53 0 .965-.434.965-.965 0-.496-.358-.73-1.13-1.089z"/><path d="M15.009 11.993a3.004 3.004 0 0 0-3.006-3.006 3.004 3.004 0 0 0-3.005 3.006 3.004 3.004 0 0 0 3.005 3.005 3.004 3.004 0 0 0 3.006-3.005z"/></g></svg>