<svg xmlns="http://www.w3.org/2000/svg" height="1506" width="2480" viewBox="0 0 2480 1506"><g transform="rotate(90 1240 1240)"><path d="M111 0h1284c61.3 0 111 49.7 111 111v2258c0 61.3-49.7 111-111 111H111c-61.3 0-111-49.7-111-111V111C0 49.7 49.7 0 111 0z" clip-rule="evenodd" fill="#242424" fill-rule="evenodd"/><linearGradient x2="753" y1="2480" x1="753" gradientUnits="userSpaceOnUse" id="a"><stop offset="0" stop-color="#010101"/><stop offset="1" stop-color="#231f20"/></linearGradient><path d="M1395 0H111C49.7 0 0 49.7 0 111v2258c0 61.3 49.7 111 111 111h1284c61.3 0 111-49.7 111-111V111c0-61.3-49.7-111-111-111zm102 2369c0 56.3-45.7 102-102 102H111c-56.3 0-102-45.7-102-102V111C9 54.7 54.7 9 111 9h1284c56.3 0 102 45.7 102 102v2258z" clip-rule="evenodd" fill="url(#a)" fill-rule="evenodd"/><linearGradient y2="2497.696" x2="753" y1="-2.64" x1="753" gradientUnits="userSpaceOnUse" id="b"><stop offset="0" stop-color="#010101"/><stop offset=".122" stop-color="#231f20"/><stop offset=".419" stop-color="#424143"/><stop offset=".594" stop-color="#231f20"/><stop offset=".735" stop-color="#595a5c"/><stop offset=".86" stop-color="#231f20"/><stop offset="1" stop-color="#818285"/></linearGradient><path d="M1395 2473.5H111c-57.6 0-104.5-46.9-104.5-104.5V111C6.5 53.4 53.4 6.5 111 6.5h1284c57.6 0 104.5 46.9 104.5 104.5v2258c0 57.6-46.9 104.5-104.5 104.5zM111 11.5c-54.9 0-99.5 44.6-99.5 99.5v2258c0 54.9 44.6 99.5 99.5 99.5h1284c54.9 0 99.5-44.6 99.5-99.5V111c0-54.9-44.6-99.5-99.5-99.5H111z" fill="url(#b)"/><linearGradient y2="2419.907" x2="753" y1="31.058" x1="753" gradientUnits="userSpaceOnUse" id="c"><stop offset="0" stop-color="#010101"/><stop offset="1" stop-color="#231f20"/></linearGradient><path d="M111 13h1284c54.1 0 98 43.9 98 98v2258c0 54.1-43.9 98-98 98H111c-54.1 0-98-43.9-98-98V111c0-54.1 43.9-98 98-98z" clip-rule="evenodd" fill="url(#c)" fill-rule="evenodd"/><path d="M153 280h1200v1920H153V280z" clip-rule="evenodd" fill="#131313" fill-rule="evenodd"/><radialGradient gradientUnits="userSpaceOnUse" r="20" cy="2334.287" cx="753" id="d"><stop offset="0" stop-color="#fff"/><stop offset="1" stop-color="#fff" stop-opacity="0"/></radialGradient><path d="M753 2314.3c11 0 20 9 20 20s-9 20-20 20-20-9-20-20 9-20 20-20z" clip-rule="evenodd" opacity=".5" fill="url(#d)" fill-rule="evenodd"/><path d="M1214 177.5c11.6 0 21 9.4 21 21s-9.4 21-21 21-21-9.4-21-21 9.4-21 21-21z" clip-rule="evenodd" opacity=".2" fill="#fff" fill-rule="evenodd"/><radialGradient gradientUnits="userSpaceOnUse" r="21" cy="196.773" cx="1214" id="e"><stop offset=".86" stop-color="#1e1e1e"/><stop offset="1" stop-color="#010101"/></radialGradient><path d="M1214 175.8c11.6 0 21 9.4 21 21s-9.4 21-21 21-21-9.4-21-21 9.4-21 21-21z" clip-rule="evenodd" fill="url(#e)" fill-rule="evenodd"/><path d="M1038.5 2138.5v-20h-47v-4h51v24h-4zm-7 9h-55v-23h55v23zm-4-19h-47v15h47v-15zm-311 19v-24l34-12 36 12v24h-70zm66-20l-32-11-30 11v16h62v-16zm-266 20h-24v-4H516c4.1 0 7.5-3.4 7.5-7.5s-3.4-7.5-7.5-7.5h-45.8l8.3 10h-5l-10-12 10-12h5l-8.3 10h46.3c6.1 0 11 5.1 11 11.5s-4.9 11.5-11 11.5z" clip-rule="evenodd" fill="#fff" fill-rule="evenodd"/></g></svg>