<svg xmlns="http://www.w3.org/2000/svg" height="1654" width="2450.7" viewBox="0 0 2450.6998 1654"><path d="M2330.1 0c69.4 0 120.6 52 120.6 120.6v1412.8c0 68.6-51.2 120.6-120.6 120.6H120.6C51.2 1654 0 1602 0 1533.4V120.6C0 52 51.2 0 120.6 0h2209.5z" fill="#231f20"/><path d="M17.1 121.8v1410.4c0 29 10.5 55.6 29.7 74.8 19.2 19.3 45.9 29.9 75.1 29.9h2207c29.2 0 55.9-10.6 75.1-29.9 19.1-19.2 29.7-45.8 29.7-74.8V121.9c0-29-10.5-55.6-29.7-74.8-19.2-19.3-45.9-29.9-75.1-29.9h-2207c-29.2 0-55.9 10.6-75.1 29.9-19.1 19.1-29.7 45.7-29.7 74.7z" fill="#010101"/><path d="M2200.7 1557.1c0 1-.9 1.9-1.9 1.9H251.9c-1 0-1.9-.9-1.9-1.9V97c0-1.1.9-1.9 1.9-1.9h1946.8c1.1 0 1.9.9 1.9 1.9v1460.1z" clip-rule="evenodd" fill="#231f20" fill-rule="evenodd"/><path d="M251.9 96.9h1946.9v1460.2H251.9V96.9m-3.8 0v1460.2c0 2.1 1.7 3.8 3.8 3.8h1946.9c2.1 0 3.8-1.7 3.8-3.8V97c0-2.1-1.7-3.8-3.8-3.8H251.9c-2.1-.1-3.8 1.6-3.8 3.7z" fill="#151517"/><path d="M2317.8 766.2c33.6 0 60.8 27.2 60.8 60.8 0 33.6-27.2 60.8-60.8 60.8-33.6 0-60.8-27.2-60.8-60.8 0-33.6 27.2-60.8 60.8-60.8z" fill="#231f20"/><path d="M2302.6 815c0-3.4 2.8-6.2 6.2-6.2h24c3.4 0 6.2 2.8 6.2 6.2v24c0 3.4-2.8 6.2-6.2 6.2h-24c-3.4 0-6.2-2.8-6.2-6.2v-24m-4 0v24c0 5.7 4.6 10.3 10.3 10.3h24c5.7 0 10.3-4.6 10.3-10.3v-24c0-5.7-4.6-10.3-10.3-10.3h-24c-5.7 0-10.3 4.6-10.3 10.3z" fill="#fff" opacity=".5"/><g clip-rule="evenodd" fill-rule="evenodd"><path d="M125.8 827c0-8.4 6.8-15.3 15.3-15.3 8.4 0 15.3 6.8 15.3 15.3s-6.8 15.3-15.3 15.3-15.3-6.9-15.3-15.3z" fill="#424143"/><path d="M134 827c0-4.1 3.3-7.4 7.4-7.4 4.1 0 7.4 3.3 7.4 7.4 0 4.1-3.3 7.4-7.4 7.4-4.1 0-7.4-3.3-7.4-7.4z" fill="#818285"/></g></svg>