<svg xmlns="http://www.w3.org/2000/svg" viewBox="0 0 24 24" height="24" width="24"><path d="M23.935 11.226c-.294-1.744-1.581-3.138-3.252-3.626.024-.172.048-.343.048-.515a3.258 3.258 0 0 0-5.58-2.281 1.133 1.133 0 0 0-1.06-.741 1.144 1.144 0 0 0-1.142 1.14c0 .627.432.905 1.336 1.336.123.058.245.123.36.188.073.04.138.082.212.122.048.033.106.065.154.098.033.017.057.042.09.057.277.188.53.391.774.611.016.008.024.025.04.033.099.09.197.187.285.293.025.024.05.057.074.082a6.006 6.006 0 0 1 1.515 3.994c0 1.36-.463 2.624-1.22 3.634-.09.121-.197.236-.295.358-.024.024-.048.057-.074.083a9.645 9.645 0 0 1-.283.292c-.018.008-.026.025-.042.033a6.242 6.242 0 0 1-.774.611c-.033.015-.057.04-.09.057a4.847 4.847 0 0 1-.366.22c-.123.065-.237.13-.359.188-.912.423-1.336.7-1.336 1.336 0 .626.512 1.14 1.14 1.14a1.133 1.133 0 0 0 1.06-.74 3.258 3.258 0 0 0 5.582-2.283c0-.18-.024-.342-.049-.514a4.618 4.618 0 0 0 3.252-3.626 4.779 4.779 0 0 0 0-1.58zM9.715 17.46a4.964 4.964 0 0 1-.36-.187c-.073-.042-.138-.083-.211-.123-.049-.032-.107-.065-.155-.098-.033-.016-.057-.04-.09-.057a6.217 6.217 0 0 1-.774-.611c-.016-.009-.024-.024-.04-.032-.099-.098-.197-.188-.286-.293-.024-.025-.05-.058-.073-.083a6.006 6.006 0 0 1-1.515-3.994c0-1.36.463-2.623 1.22-3.633.09-.123.197-.236.295-.36.024-.023.049-.056.073-.08.09-.098.187-.196.284-.294.018-.008.026-.024.042-.032.244-.22.496-.432.774-.611.033-.017.057-.041.09-.057.048-.033.098-.066.155-.098.065-.041.138-.083.212-.123.122-.065.237-.13.359-.187.912-.424 1.336-.7 1.336-1.336A1.144 1.144 0 0 0 9.91 4.03a1.133 1.133 0 0 0-1.06.743 3.258 3.258 0 0 0-5.582 2.282c0 .178.024.342.048.513a4.618 4.618 0 0 0-3.25 3.626 4.779 4.779 0 0 0-.066.766c0 .26.024.514.065.766.294 1.743 1.581 3.137 3.251 3.627-.023.17-.047.343-.047.513a3.258 3.258 0 0 0 5.58 2.282 1.133 1.133 0 0 0 1.06.74c.627 0 1.142-.512 1.142-1.14 0-.586-.424-.863-1.336-1.287z"/><path d="M15.557 11.992a3.551 3.551 0 0 0-3.554-3.554 3.551 3.551 0 0 0-3.552 3.554 3.551 3.551 0 0 0 3.552 3.552 3.551 3.551 0 0 0 3.554-3.552z"/></svg>