<?xml version="1.0" encoding="utf-8"?>
<!-- Generator: Adobe Illustrator 16.0.0, SVG Export Plug-In . SVG Version: 6.00 Build 0)  -->
<!DOCTYPE svg PUBLIC "-//W3C//DTD SVG 1.1//EN" "http://www.w3.org/Graphics/SVG/1.1/DTD/svg11.dtd">
<svg version="1.1" id="Layer_1" xmlns="http://www.w3.org/2000/svg" xmlns:xlink="http://www.w3.org/1999/xlink" x="0px" y="0px"
	 width="294.499px" height="201.4px" viewBox="49.6 -0.3 294.499 201.4" enable-background="new 49.6 -0.3 294.499 201.4"
	 xml:space="preserve">
<g>
	<path fill="#FFFFFF" d="M343.3,90.9c-3.6-21.4-19.4-38.5-39.9-44.5c0.301-2.1,0.6-4.2,0.6-6.3l0,0c0-22.1-17.899-40-40-40
		c-11.199,0-21.199,4.6-28.5,12c-2-5.3-7-9.1-13-9.1c-7.699,0-14,6.3-14,14s5.301,11.1,16.4,16.4c1.5,0.7,3,1.5,4.4,2.3
		c0.9,0.5,1.699,1,2.6,1.5c0.6,0.4,1.301,0.8,1.9,1.2c0.4,0.2,0.699,0.5,1.1,0.7c3.4,2.3,6.5,4.8,9.5,7.5c0.2,0.1,0.301,0.3,0.5,0.4
		c1.2,1.1,2.4,2.3,3.5,3.6c0.301,0.3,0.6,0.7,0.9,1c1.3,1.4,2.5,2.9,3.6,4.4c9.4,12.4,15,27.9,15,44.6c0,16.7-5.699,32.2-15,44.6
		c-1.1,1.5-2.4,2.9-3.6,4.4c-0.301,0.3-0.6,0.699-0.9,1c-1.1,1.199-2.3,2.4-3.5,3.6c-0.199,0.1-0.3,0.301-0.5,0.4
		c-3,2.699-6.1,5.3-9.5,7.5c-0.4,0.199-0.699,0.5-1.1,0.699c-0.6,0.4-1.2,0.801-1.9,1.201c-0.8,0.5-1.699,1-2.6,1.5
		c-1.5,0.799-2.9,1.6-4.4,2.299c-11.199,5.201-16.4,8.601-16.4,16.4c0,7.7,6.301,14,14,14c6,0,11-3.8,13-9.1
		c7.301,7.4,17.4,12,28.5,12c22.101,0,40-17.9,40-40l0,0c0-2.2-0.299-4.2-0.6-6.301c20.5-6,36.199-23.199,39.9-44.5
		c0.5-3.1,0.799-6.2,0.799-9.4C344.099,97.1,343.8,93.9,343.3,90.9z"/>
	<path fill="#FFFFFF" d="M168.8,167.4c-1.5-0.7-3-1.5-4.4-2.3c-0.9-0.5-1.7-1-2.6-1.5c-0.6-0.4-1.3-0.801-1.9-1.2
		c-0.4-0.2-0.7-0.5-1.1-0.7c-3.4-2.199-6.5-4.8-9.5-7.5c-0.2-0.1-0.3-0.3-0.5-0.4c-1.2-1.199-2.4-2.299-3.5-3.6
		c-0.3-0.3-0.6-0.699-0.9-1c-1.3-1.4-2.5-2.9-3.6-4.4c-9.4-12.399-15-27.899-15-44.599c0-16.7,5.7-32.2,15-44.6
		c1.1-1.5,2.4-2.9,3.6-4.4c0.3-0.3,0.6-0.7,0.9-1c1.1-1.2,2.3-2.4,3.5-3.6c0.2-0.1,0.3-0.3,0.5-0.4c3-2.7,6.1-5.3,9.5-7.5
		c0.4-0.2,0.7-0.5,1.1-0.7c0.6-0.4,1.2-0.8,1.9-1.2c0.8-0.5,1.7-1,2.6-1.5c1.5-0.8,2.9-1.6,4.4-2.3c11.2-5.2,16.4-8.6,16.4-16.4
		c0-7.7-6.3-14-14-14c-6,0-11,3.8-13,9.1c-7.3-7.4-17.4-12-28.5-12c-22.1,0-40,17.9-40,40l0,0c0,2.2,0.3,4.2,0.6,6.3
		c-20.5,6-36.2,23.2-39.9,44.5c-0.5,3.1-0.8,6.2-0.8,9.4c0,3.2,0.3,6.3,0.8,9.4c3.6,21.4,19.4,38.5,39.9,44.5
		C90,155.9,89.7,158,89.7,160.1l0,0c0,22.1,17.9,40,40,40c11.2,0,21.2-4.6,28.5-12c2,5.3,7,9.1,13,9.1c7.7,0,14-6.3,14-14
		C185.2,176,180,172.6,168.8,167.4z"/>
	<path fill="#FFFFFF" d="M240.5,100.3c0-24.1-19.5-43.6-43.6-43.6c-24.1,0-43.6,19.5-43.6,43.6c0,24.1,19.5,43.6,43.6,43.6
		C221,143.9,240.5,124.4,240.5,100.3z"/>
</g>
</svg>
